HIERARCHY
ROOT Hips
{
    OFFSET   0.000000   0.000000   0.000000
    CHANNELS 6 Xposition Yposition Zposition Zrotation Xrotation Yrotation
    JOINT Chest
    {
        OFFSET   0.000000   8.007240   0.000000
        CHANNELS 3 Zrotation Xrotation Yrotation
        JOINT Chest2
        {
            OFFSET   0.000000  22.077100   0.000000
            CHANNELS 3 Zrotation Xrotation Yrotation
            JOINT Neck
            {
                OFFSET   0.000000  23.254800   0.000000
                CHANNELS 3 Zrotation Xrotation Yrotation
                JOINT Head
                {
                    OFFSET   0.000000  14.370000   1.956600
                    CHANNELS 3 Zrotation Xrotation Yrotation
                    End Site
                    {
                        OFFSET   0.000000  19.566000   0.000000
                    }
                }
            }
            JOINT LeftCollar
            {
                OFFSET   3.911900  19.017000  -0.467064
                CHANNELS 3 Zrotation Xrotation Yrotation
                JOINT LeftShoulder
                {
                    OFFSET  10.383700   0.000000   0.000000
                    CHANNELS 3 Zrotation Xrotation Yrotation
                    JOINT LeftElbow
                    {
                        OFFSET  26.662100   0.001476   0.000517
                        CHANNELS 3 Zrotation Xrotation Yrotation
                        JOINT LeftWrist
                        {
                            OFFSET  28.869000  -0.000025  -0.000106
                            CHANNELS 3 Zrotation Xrotation Yrotation
                            JOINT LeftFinger0
                            {
                                OFFSET   2.044660  -2.323460   3.252850
                                CHANNELS 3 Zrotation Xrotation Yrotation
                                JOINT LeftFinger01
                                {
                                    OFFSET   3.088130   0.000000   0.000000
                                    CHANNELS 3 Zrotation Xrotation Yrotation
                                    JOINT LeftFinger02
                                    {
                                        OFFSET   2.639460   0.000000   0.000000
                                        CHANNELS 3 Zrotation Xrotation Yrotation
                                        End Site
                                        {
                                            OFFSET   2.582190   0.000000   0.000000
                                        }
                                    }
                                }
                            }
                            JOINT LeftFinger1
                            {
                                OFFSET   8.364480   0.000000   3.252850
                                CHANNELS 3 Zrotation Xrotation Yrotation
                                JOINT LeftFinger11
                                {
                                    OFFSET   4.646930   0.000000   0.000000
                                    CHANNELS 3 Zrotation Xrotation Yrotation
                                    JOINT LeftFinger12
                                    {
                                        OFFSET   2.323460   0.000000   0.000000
                                        CHANNELS 3 Zrotation Xrotation Yrotation
                                        End Site
                                        {
                                            OFFSET   2.273050   0.000000   0.000000
                                        }
                                    }
                                }
                            }
                            JOINT LeftFinger2
                            {
                                OFFSET   8.364490   0.000015   1.078090
                                CHANNELS 3 Zrotation Xrotation Yrotation
                                JOINT LeftFinger21
                                {
                                    OFFSET   5.111620   0.000000   0.000000
                                    CHANNELS 3 Zrotation Xrotation Yrotation
                                    JOINT LeftFinger22
                                    {
                                        OFFSET   2.788160   0.000016   0.000000
                                        CHANNELS 3 Zrotation Xrotation Yrotation
                                        End Site
                                        {
                                            OFFSET   2.727660   0.000000   0.000000
                                        }
                                    }
                                }
                            }
                            JOINT LeftFinger3
                            {
                                OFFSET   7.899780   0.000017  -1.078090
                                CHANNELS 3 Zrotation Xrotation Yrotation
                                JOINT LeftFinger31
                                {
                                    OFFSET   4.646930   0.000000   0.000000
                                    CHANNELS 3 Zrotation Xrotation Yrotation
                                    JOINT LeftFinger32
                                    {
                                        OFFSET   2.323470   0.000000   0.000000
                                        CHANNELS 3 Zrotation Xrotation Yrotation
                                        End Site
                                        {
                                            OFFSET   2.273050   0.000000   0.000000
                                        }
                                    }
                                }
                            }
                            JOINT LeftFinger4
                            {
                                OFFSET   7.435090   0.000000  -3.252850
                                CHANNELS 3 Zrotation Xrotation Yrotation
                                JOINT LeftFinger41
                                {
                                    OFFSET   3.717550   0.000000   0.000000
                                    CHANNELS 3 Zrotation Xrotation Yrotation
                                    JOINT LeftFinger42
                                    {
                                        OFFSET   1.858770   0.000000   0.000000
                                        CHANNELS 3 Zrotation Xrotation Yrotation
                                        End Site
                                        {
                                            OFFSET   1.818440   0.000000   0.000000
                                        }
                                    }
                                }
                            }
                        }
                    }
                }
            }
            JOINT RightCollar
            {
                OFFSET  -3.911900  19.017000  -0.467063
                CHANNELS 3 Zrotation Xrotation Yrotation
                JOINT RightShoulder
                {
                    OFFSET -10.383700   0.000019   0.000000
                    CHANNELS 3 Zrotation Xrotation Yrotation
                    JOINT RightElbow
                    {
                        OFFSET -26.662100   0.001175   0.000102
                        CHANNELS 3 Zrotation Xrotation Yrotation
                        JOINT RightWrist
                        {
                            OFFSET -28.869000   0.000016  -0.000079
                            CHANNELS 3 Zrotation Xrotation Yrotation
                            JOINT RightFinger0
                            {
                                OFFSET  -2.044660  -2.323490   3.252850
                                CHANNELS 3 Zrotation Xrotation Yrotation
                                JOINT RightFinger01
                                {
                                    OFFSET  -3.088140   0.000000   0.000000
                                    CHANNELS 3 Zrotation Xrotation Yrotation
                                    JOINT RightFinger02
                                    {
                                        OFFSET  -2.639460   0.000000   0.000000
                                        CHANNELS 3 Zrotation Xrotation Yrotation
                                        End Site
                                        {
                                            OFFSET  -2.582190   0.000000   0.000000
                                        }
                                    }
                                }
                            }
                            JOINT RightFinger1
                            {
                                OFFSET  -8.364480   0.000000   3.252850
                                CHANNELS 3 Zrotation Xrotation Yrotation
                                JOINT RightFinger11
                                {
                                    OFFSET  -4.646930   0.000000   0.000000
                                    CHANNELS 3 Zrotation Xrotation Yrotation
                                    JOINT RightFinger12
                                    {
                                        OFFSET  -2.323470   0.000000   0.000000
                                        CHANNELS 3 Zrotation Xrotation Yrotation
                                        End Site
                                        {
                                            OFFSET  -2.273050   0.000000   0.000000
                                        }
                                    }
                                }
                            }
                            JOINT RightFinger2
                            {
                                OFFSET  -8.364480   0.000000   1.078090
                                CHANNELS 3 Zrotation Xrotation Yrotation
                                JOINT RightFinger21
                                {
                                    OFFSET  -5.111620   0.000000   0.000000
                                    CHANNELS 3 Zrotation Xrotation Yrotation
                                    JOINT RightFinger22
                                    {
                                        OFFSET  -2.788160   0.000000   0.000000
                                        CHANNELS 3 Zrotation Xrotation Yrotation
                                        End Site
                                        {
                                            OFFSET  -2.727660   0.000000   0.000000
                                        }
                                    }
                                }
                            }
                            JOINT RightFinger3
                            {
                                OFFSET  -7.899780   0.000000  -1.078090
                                CHANNELS 3 Zrotation Xrotation Yrotation
                                JOINT RightFinger31
                                {
                                    OFFSET  -4.646930   0.000000   0.000000
                                    CHANNELS 3 Zrotation Xrotation Yrotation
                                    JOINT RightFinger32
                                    {
                                        OFFSET  -2.323470   0.000000   0.000000
                                        CHANNELS 3 Zrotation Xrotation Yrotation
                                        End Site
                                        {
                                            OFFSET  -2.273050   0.000000   0.000000
                                        }
                                    }
                                }
                            }
                            JOINT RightFinger4
                            {
                                OFFSET  -7.435090   0.000000  -3.252850
                                CHANNELS 3 Zrotation Xrotation Yrotation
                                JOINT RightFinger41
                                {
                                    OFFSET  -3.717550   0.000000   0.000000
                                    CHANNELS 3 Zrotation Xrotation Yrotation
                                    JOINT RightFinger42
                                    {
                                        OFFSET  -1.858770   0.000000   0.000000
                                        CHANNELS 3 Zrotation Xrotation Yrotation
                                        End Site
                                        {
                                            OFFSET  -1.818440   0.000000   0.000000
                                        }
                                    }
                                }
                            }
                        }
                    }
                }
            }
        }
    }
    JOINT LeftHip
    {
        OFFSET   9.783040   0.000000   0.000000
        CHANNELS 3 Zrotation Xrotation Yrotation
        JOINT LeftKnee
        {
            OFFSET   0.000032 -41.789100  -0.002222
            CHANNELS 3 Zrotation Xrotation Yrotation
            JOINT LeftAnkle
            {
                OFFSET   0.000087 -41.133200  -0.000135
                CHANNELS 3 Zrotation Xrotation Yrotation
                JOINT LeftToe
                {
                    OFFSET   0.000000  -6.358960  14.674500
                    CHANNELS 3 Zrotation Xrotation Yrotation
                    End Site
                    {
                        OFFSET   0.000000   0.000000   3.913200
                    }
                }
            }
        }
    }
    JOINT RightHip
    {
        OFFSET  -9.783040   0.000000   0.000000
        CHANNELS 3 Zrotation Xrotation Yrotation
        JOINT RightKnee
        {
            OFFSET   0.000047 -41.789100  -0.000896
            CHANNELS 3 Zrotation Xrotation Yrotation
            JOINT RightAnkle
            {
                OFFSET  -0.000117 -41.133300  -0.000248
                CHANNELS 3 Zrotation Xrotation Yrotation
                JOINT RightToe
                {
                    OFFSET   0.000000  -6.358970  14.674500
                    CHANNELS 3 Zrotation Xrotation Yrotation
                    End Site
                    {
                        OFFSET   0.000000   0.000000   3.913200
                    }
                }
            }
        }
    }
}
MOTION
Frames: 5
Frame Time:   0.016667
 -1.645390  89.593500 -10.862800  -1.784360  -8.176430   0.554783   1.312000   4.461900  -0.502139   2.675520   8.910920  -1.112060   0.029817   0.201534   0.006429   0.048974   0.408436   6.131500  -4.508880   4.697150   0.008277 -71.428400  11.908700  -7.945380  -2.890220  -8.742780 -10.072100   5.760210 -12.473400   6.992230  38.856000  24.420500 -58.530200 -24.533600   0.010899   0.005107  -7.275640   0.004094  -0.005614 -30.874400   3.352730  -5.586660 -25.394900  -0.003170  -0.002426 -17.776400  -0.008485  -0.004786 -28.288600  -0.251857   0.467934 -34.134600  -0.005368  -0.005261 -22.733700  -0.003100  -0.003822 -28.313800  -2.496180   4.621620 -35.266900  -0.002147  -0.000592 -23.487700  -0.006587  -0.003559 -33.646200  -2.915530   4.369530 -50.637100  -0.002266  -0.009242 -33.724300  -0.004330  -0.009468   3.947180   1.622450   5.618190  72.114900  -3.000920   1.418090  -1.320140  -7.108670  10.613100 -13.304900 -16.775700   1.022780 -42.046600  29.921800  67.013900  21.789400   0.002890  -0.001095   5.894700   0.008267  -0.004001  29.314800   4.289570   7.587400  24.217700   0.000115   0.000795  16.952300   0.000166   0.000484  27.876400   3.324320   6.256390  32.386700  -0.002827   0.001093  21.569600  -0.002960   0.001711  27.730400   2.578130   4.890940  31.018500  -0.002144   0.002222  20.658300   0.003959   0.001564  29.033100   1.136580   2.046650  43.580200  -0.000081   0.001471  29.024400   0.003743   0.001319   2.273260   7.796870   3.415390   1.464390   0.084498  15.536000  -4.715880   0.188115   7.670470   0.000000   0.000000   0.000000   0.657223   1.238190  -5.311720  -0.647596   7.727770 -14.851700  -0.549616  -4.948900  -2.947190   0.000000   0.000000  -0.000000
 -1.670300  89.593500 -10.856300  -1.790200  -8.209670   0.561229   1.312100   4.475320  -0.499785   2.675700   8.937800  -1.107750   0.023057   0.187086   0.006414   0.037812   0.378853   6.161060  -4.508860   4.682060   0.008277 -71.410500  11.941400  -7.989780  -2.871940  -8.770540 -10.060700   5.752750 -12.468200   7.068850  38.822600  24.377300 -58.534000 -24.539800   0.010901   0.005071  -7.275320   0.004087  -0.005624 -30.879000   3.433770  -5.716520 -25.405000  -0.003168  -0.002429 -17.783500  -0.008484  -0.004790 -28.276900  -0.178720   0.332286 -34.026800  -0.005363  -0.005257 -22.661800  -0.003097  -0.003817 -28.312500  -2.409370   4.461960 -35.180400  -0.002145  -0.000588 -23.430000  -0.006587  -0.003556 -33.612000  -2.811640   4.220340 -50.573400  -0.002263  -0.009244 -33.681900  -0.004332  -0.009470   3.947000   1.622610   5.624080  72.137600  -2.949850   1.435480  -1.308520  -7.094960  10.608400 -13.268100 -16.761500   1.053100 -42.061600  29.921500  67.036000  21.751700   0.002883  -0.001094   5.875830   0.008273  -0.004001  29.335700   4.293800   7.588620  24.235100   0.000123   0.000792  16.964400   0.000165   0.000476  27.890200   3.318140   6.241240  32.478600  -0.002819   0.001094  21.630800  -0.002958   0.001709  27.757200   2.556130   4.844340  31.168600  -0.002136   0.002221  20.758300   0.003956   0.001561  29.188800   1.156830   2.069670  43.814600  -0.000080   0.001468  29.180500   0.003742   0.001311   2.290450   7.861330   3.409190   1.473470   0.042017  15.543500  -4.716970   0.210548   7.658900  -0.000000   0.000000  -0.000000   0.680372   1.246020  -5.310520  -0.644827   7.761590 -14.848500  -0.564356  -4.960380  -2.960850  -0.000000   0.000000  -0.000000
 -1.710900  89.593600 -10.844000  -1.797370  -8.263520   0.577512   1.312250   4.495600  -0.497435   2.676140   8.978390  -1.103490   0.011569   0.167008   0.006387   0.018915   0.337892   6.209480  -4.508840   4.660270   0.008274 -71.382800  11.986700  -8.050680  -2.845080  -8.803130 -10.042200   5.738730 -12.453600   7.188470  38.799300  24.334100 -58.537800 -24.546100   0.010908   0.005035  -7.273070   0.004074  -0.005635 -30.904500   3.514760  -5.846420 -25.432200  -0.003159  -0.002436 -17.802500  -0.008479  -0.004801 -28.264800  -0.105581   0.196639 -33.918900  -0.005347  -0.005246 -22.590000  -0.003087  -0.003802 -28.310800  -2.322500   4.302330 -35.093800  -0.002138  -0.000580 -23.372400  -0.006585  -0.003549 -33.577200  -2.707680   4.071200 -50.509800  -0.002256  -0.009252 -33.639500  -0.004338  -0.009474   3.946730   1.622760   5.634570  72.173000  -2.869850   1.455180  -1.297590  -7.081370  10.598100 -13.182800 -16.731900   1.120380 -42.100400  29.929900  67.069900  21.690000   0.002861  -0.001091   5.844970   0.008287  -0.003998  29.356600   4.298030   7.589830  24.252400   0.000138   0.000781  16.976600   0.000165   0.000462  27.906200   3.302030   6.207230  32.570500  -0.002801   0.001094  21.691900  -0.002957   0.001699  27.786900   2.516520   4.763460  31.318700  -0.002114   0.002218  20.858300   0.003953   0.001554  29.416600   1.185080   2.100800  44.157500  -0.000070   0.001463  29.408900   0.003735   0.001296   2.319310   7.942660   3.403140   1.482560  -0.000461  15.551000  -4.718020   0.232987   7.637970   0.000000   0.000000   0.000000   0.714281   1.268180  -5.302090  -0.638375   7.809200 -14.845800  -0.585780  -4.971780  -2.989810   0.000000   0.000000   0.000000
 -1.741400  89.592900 -10.831300  -1.798060  -8.303560   0.602547   1.311910   4.507690  -0.499909   2.675850   9.002530  -1.108670   0.001936   0.158940   0.006360   0.002942   0.321955   6.247020  -4.513120   4.648640   0.008066 -71.364800  12.000700  -8.069000  -2.834850  -8.808210 -10.031600   5.724890 -12.422500   7.264320  38.821700  24.341100 -58.528800 -24.508600   0.010923   0.005038  -7.253370   0.004061  -0.005630 -30.967100   3.470520  -5.762320 -25.478900  -0.003142  -0.002449 -17.835200  -0.008470  -0.004820 -28.279000  -0.147159   0.273577 -34.035400  -0.005319  -0.005231 -22.667600  -0.003071  -0.003778 -28.323200  -2.328730   4.311450 -35.218100  -0.002126  -0.000568 -23.455200  -0.006584  -0.003539 -33.630500  -2.717840   4.077630 -50.590500  -0.002245  -0.009265 -33.693300  -0.004349  -0.009481   3.952480   1.622590   5.644940  72.197600  -2.817090   1.457090  -1.298960  -7.090010  10.583800 -13.054400 -16.693400   1.221050 -42.196100  29.992700  67.052900  21.637800   0.002823  -0.001043   5.818880   0.008303  -0.003993  29.289800   4.262790   7.548510  24.194500   0.000151   0.000763  16.936100   0.000176   0.000448  27.903100   3.274540   6.156850  32.523800  -0.002780   0.001087  21.660900  -0.002960   0.001677  27.786200   2.474920   4.684900  31.289000  -0.002082   0.002212  20.838500   0.003953   0.001544  29.549400   1.194650   2.107420  44.356900  -0.000031   0.001455  29.541700   0.003699   0.001288   2.343350   7.953910   3.404150   1.488450   0.070119  15.536700  -4.735990   0.199661   7.618560   0.000000   0.000000  -0.000000   0.730995   1.307320  -5.274830  -0.624142   7.827080 -14.857400  -0.595875  -4.968010  -3.029470  -0.000000   0.000000  -0.000000
 -1.770870  89.591100 -10.816800  -1.794940  -8.341270   0.633485   1.310960   4.516790  -0.505211   2.674470   9.020650  -1.119560  -0.008007   0.156500   0.006329  -0.013201   0.317388   6.282390  -4.520590   4.643690   0.007861 -71.350500  12.010300  -8.077380  -2.826740  -8.809990 -10.016800   5.707610 -12.399500   7.336120  38.852000  24.348100 -58.519700 -24.471200   0.010939   0.005044  -7.235600   0.004042  -0.005622 -31.039600   3.388260  -5.608970 -25.530900  -0.003118  -0.002466 -17.871600  -0.008458  -0.004846 -28.299000  -0.221448   0.411169 -34.203300  -0.005282  -0.005212 -22.779400  -0.003050  -0.003746 -28.340100  -2.346380   4.340780 -35.394800  -0.002110  -0.000553 -23.572900  -0.006581  -0.003526 -33.708600  -2.742750   4.102130 -50.709800  -0.002230  -0.009283 -33.772700  -0.004362  -0.009491   3.962560   1.621610   5.655000  72.218900  -2.769540   1.458190  -1.305780  -7.102370  10.568500 -12.916800 -16.652600   1.318430 -42.322000  30.093700  67.009900  21.597400   0.002775  -0.000998   5.798700   0.008325  -0.003987  29.159900   4.207650   7.491390  24.083500   0.000169   0.000738  16.858400   0.000192   0.000429  27.886700   3.244880   6.105580  32.395000  -0.002752   0.001073  21.575100  -0.002962   0.001650  27.772700   2.437230   4.616680  31.195800  -0.002041   0.002204  20.776400   0.003953   0.001533  29.609800   1.200660   2.111650  44.447900   0.000000   0.001446  29.602300   0.003662   0.001270   2.365740   7.965140   3.407480   1.494390   0.140715  15.514800  -4.753980   0.166333   7.595600   0.000000   0.000000  -0.000000   0.743072   1.352830  -5.247230  -0.606036   7.837290 -14.875800  -0.603279  -4.953540  -3.069480  -0.000000   0.000000  -0.000000
